<?xml version="1.0" encoding="UTF-8" standalone="no"?>
<svg
   version="1.1"
   viewBox="0 0 400 400"
   id="svg166"
   sodipodi:docname="digest-ti-logo.svg"
   inkscape:version="1.2.2 (b0a8486541, 2022-12-01)"
   width="400"
   height="400"
   xmlns:inkscape="http://www.inkscape.org/namespaces/inkscape"
   xmlns:sodipodi="http://sodipodi.sourceforge.net/DTD/sodipodi-0.dtd"
   xmlns="http://www.w3.org/2000/svg"
   xmlns:svg="http://www.w3.org/2000/svg">
  <defs
     id="defs170" />
  <sodipodi:namedview
     id="namedview168"
     pagecolor="#ffffff"
     bordercolor="#000000"
     borderopacity="0.25"
     inkscape:showpageshadow="2"
     inkscape:pageopacity="0.0"
     inkscape:pagecheckerboard="0"
     inkscape:deskcolor="#d1d1d1"
     showgrid="false"
     inkscape:zoom="2"
     inkscape:cx="160.25"
     inkscape:cy="228.5"
     inkscape:window-width="2560"
     inkscape:window-height="1011"
     inkscape:window-x="1920"
     inkscape:window-y="32"
     inkscape:window-maximized="1"
     inkscape:current-layer="svg166" />
  <g
     id="g1939"
     transform="matrix(1.1452599,0,0,1.1452599,-42.153673,-30.647802)">
    <g
       stroke-width="2"
       fill="none"
       stroke-linecap="butt"
       id="g82">
      <path
         stroke="#10456c"
         vector-effect="non-scaling-stroke"
         d="M 384.74,201.36 A 173.39,173.39 0 0 0 211.35,27.97 173.39,173.39 0 0 0 37.96,201.36 173.39,173.39 0 0 0 211.35,374.75 173.39,173.39 0 0 0 384.74,201.36"
         id="path2" />
      <path
         stroke="#10456c"
         vector-effect="non-scaling-stroke"
         d="m 233.78,59.2 a 0.52,0.52 0 0 1 -0.41,-0.65 l 0.82,-2.77 a 0.52,0.52 0 0 1 0.59,-0.36 l 18.2,3.37 a 0.52,0.52 0 0 0 0.6,-0.41 l 1.7,-9.27 a 0.52,0.52 0 0 0 -0.43,-0.61 l -30.62,-5.36 a 0.52,0.52 0 0 0 -0.6,0.42 l -6.51,36.15 a 0.52,0.52 0 0 0 0.42,0.6 l 30.93,5.56 a 0.52,0.52 0 0 0 0.61,-0.42 l 1.74,-9.12 a 0.52,0.52 0 0 0 -0.42,-0.61 l -18.86,-3.38 a 0.52,0.52 0 0 1 -0.42,-0.6 l 0.56,-3.08 a 0.52,0.52 0 0 1 0.6,-0.42 l 17.3,2.97 a 0.52,0.52 0 0 0 0.6,-0.43 l 1.18,-7.86 a 0.52,0.52 0 0 0 -0.42,-0.59 L 233.78,59.2"
         id="path4" />
      <path
         stroke="#10456c"
         vector-effect="non-scaling-stroke"
         d="m 191.09,68.62 c 4.18,6.22 -13.55,8.8 -14.03,-3.65 -0.31,-7.87 8.14,-11.59 14.44,-7.91 a 1.15,1.15 0 0 0 1.6,-0.46 l 4.36,-8.36 q 0.23,-0.44 -0.22,-0.66 c -9.94,-5.07 -23.41,-2.95 -29.79,6.71 -5.83,8.83 -3.16,21.72 5.93,27.04 10.31,6.05 22.78,2.59 30.9,-5.74 q 0.37,-0.39 0.26,-0.92 l -3.47,-16.38 a 0.49,0.49 0 0 0 -0.58,-0.38 l -16.61,3.6 q -0.65,0.14 -0.52,0.79 l 1.4,6.69 q 0.12,0.6 0.72,0.46 l 4.82,-1.14 q 0.5,-0.12 0.79,0.31"
         id="path6" />
      <path
         stroke="#10456c"
         vector-effect="non-scaling-stroke"
         d="m 139.8615,60.9403 a 0.59,0.59 0 0 0 -0.8037,-0.2244 l -9.9318,5.5963 a 0.59,0.59 0 0 0 -0.2244,0.8037 l 17.9769,31.9038 a 0.59,0.59 0 0 0 0.8037,0.2244 l 9.9318,-5.5963 a 0.59,0.59 0 0 0 0.2244,-0.8037 L 139.8615,60.9403"
         id="path8" />
      <path
         stroke="#10456c"
         vector-effect="non-scaling-stroke"
         d="m 283.34,74.05 q 0.04,-1.77 1.7,-1.62 c 3.41,0.3 7.76,6.16 9.14,9.05 q 0.27,0.57 0.84,0.32 l 8.76,-3.73 a 0.55,0.55 0 0 0 0.27,-0.77 c -4.19,-7.9 -13.59,-16.35 -23.03,-15.63 -10.38,0.8 -13.76,12.28 -6.54,19.61 1.25,1.27 8.08,7.67 8.18,8.85 q 0.05,0.73 -0.67,1.23 a 1.88,1.86 41.3 0 1 -1.94,0.12 q -6.93,-3.67 -10.2,-10.81 -0.24,-0.51 -0.77,-0.33 l -8.92,3.09 q -0.6,0.21 -0.34,0.79 c 3.71,8.15 11.15,15.13 19.74,17.72 6.36,1.91 13.65,-1.33 15.45,-7.86 2.2,-8 -6.31,-14.13 -11.19,-18.87 a 1.59,1.56 -68.1 0 1 -0.48,-1.16"
         id="path10" />
      <path
         stroke="#10456c"
         vector-effect="non-scaling-stroke"
         d="m 83.88,106.65 27.29,25.36 a 0.22,0.22 0 0 0 0.31,-0.01 l 11.19,-12.04 a 20.26,17.61 -47.1 0 0 0.89,-26.83 l -1.81,-1.69 A 20.26,17.61 -47.1 0 0 95.06,94.3 l -11.19,12.04 a 0.22,0.22 0 0 0 0.01,0.31"
         id="path12" />
      <path
         stroke="#10456c"
         vector-effect="non-scaling-stroke"
         d="m 308.57,130.36 a 0.43,0.43 0 0 0 0.6,0.06 l 20.41,-16.52 a 0.43,0.43 0 0 1 0.6,0.06 l 6.49,7.92 a 0.43,0.43 0 0 0 0.6,0.07 l 7.66,-6.04 A 0.43,0.43 0 0 0 345,115.3 L 323.54,88.79 a 0.43,0.43 0 0 0 -0.6,-0.06 l -7.57,6.22 a 0.43,0.43 0 0 0 -0.06,0.6 l 6.49,7.94 a 0.43,0.43 0 0 1 -0.07,0.6 l -20.52,16.59 a 0.43,0.43 0 0 0 -0.07,0.6 l 7.43,9.08"
         id="path14" />
      <path
         stroke="#10456c"
         vector-effect="non-scaling-stroke"
         d="M 320.21,201.36 A 108.86,108.86 0 0 0 211.35,92.5 108.86,108.86 0 0 0 102.49,201.36 108.86,108.86 0 0 0 211.35,310.22 108.86,108.86 0 0 0 320.21,201.36"
         id="path16" />
      <path
         stroke="#10456c"
         vector-effect="non-scaling-stroke"
         d="m 84.68,165.03 a 9.05,9.05 0 0 0 -9.05,-9.05 9.05,9.05 0 0 0 -9.05,9.05 9.05,9.05 0 0 0 9.05,9.05 9.05,9.05 0 0 0 9.05,-9.05"
         id="path18" />
      <path
         stroke="#10456c"
         vector-effect="non-scaling-stroke"
         d="m 356.79,165.03 a 9.04,9.04 0 0 0 -9.04,-9.04 9.04,9.04 0 0 0 -9.04,9.04 9.04,9.04 0 0 0 9.04,9.04 9.04,9.04 0 0 0 9.04,-9.04"
         id="path20" />
      <path
         stroke="#10456c"
         vector-effect="non-scaling-stroke"
         d="m 355.83,210.77 a 0.58,0.58 0 0 1 1.1,0.24 q 0.15,4.49 -2.41,8.12 -0.32,0.46 0.07,0.85 l 3.36,3.32 q 0.46,0.46 0.86,-0.05 4.62,-5.9 3.85,-13.53 c -0.45,-4.42 -5.37,-8.57 -9.46,-6.08 -3.08,1.86 -4.23,6.52 -5.35,10.15 q -0.24,0.76 -1.22,0.37 -0.52,-0.21 -0.46,-0.77 0.34,-3.52 2.15,-6.62 0.3,-0.5 -0.16,-0.85 l -3.63,-2.87 a 0.67,0.67 0 0 0 -0.98,0.17 c -3.56,5.57 -5.62,19.07 5.01,18.31 4.37,-0.31 5.71,-7.69 7.27,-10.76"
         id="path22" />
      <path
         stroke="#10456c"
         vector-effect="non-scaling-stroke"
         d="m 75.61,217.09 a 0.64,0.64 0 0 1 0.7,0.6 l 0.27,5.01 a 0.64,0.64 0 0 0 0.69,0.61 l 4.82,-0.41 a 0.64,0.64 0 0 0 0.58,-0.69 l -1.72,-18.46 a 0.64,0.64 0 0 0 -0.7,-0.58 l -4.74,0.46 a 0.64,0.64 0 0 0 -0.58,0.67 l 0.27,5.27 a 0.64,0.64 0 0 1 -0.59,0.67 l -13.8,1.02 a 0.64,0.64 0 0 0 -0.59,0.69 l 0.43,5.94 a 0.64,0.64 0 0 0 0.7,0.59 l 14.26,-1.39"
         id="path24" />
      <path
         stroke="#10456c"
         vector-effect="non-scaling-stroke"
         d="m 360.1586,229.7552 a 0.59,0.59 0 0 0 -0.4581,-0.6973 l -19.7412,-4.0882 a 0.59,0.59 0 0 0 -0.6974,0.4581 l -1.2005,5.797 a 0.59,0.59 0 0 0 0.4581,0.6973 l 19.7412,4.0882 a 0.59,0.59 0 0 0 0.6974,-0.4581 l 1.2005,-5.797"
         id="path26" />
      <path
         stroke="#10456c"
         vector-effect="non-scaling-stroke"
         d="m 71.39,236.18 a 0.84,0.84 0 0 1 1.05,0.58 l 2.44,8.99 a 0.75,0.74 72.8 0 0 0.96,0.51 l 3.62,-1.21 q 0.57,-0.19 0.41,-0.78 l -2.42,-8.52 a 1.04,1.03 77.6 0 1 0.83,-1.31 l 0.4,-0.06 q 0.66,-0.11 0.84,0.54 l 2.59,9.49 q 0.16,0.58 0.74,0.44 l 4.5,-1.09 q 0.58,-0.14 0.42,-0.71 l -4.31,-16.27 a 0.77,0.77 0 0 0 -0.94,-0.54 l -19.43,5.09 a 0.54,0.54 0 0 0 -0.38,0.65 l 4.45,16.89 q 0.13,0.52 0.64,0.37 l 4.48,-1.28 q 0.61,-0.18 0.45,-0.79 c -0.47,-1.81 -3.34,-10.37 -1.34,-10.99"
         id="path28" />
      <path
         stroke="#10456c"
         vector-effect="non-scaling-stroke"
         d="m 351.94,249.54 a 0.5,0.5 0 0 1 0.5,-0.34 l 2.43,0.13 a 0.5,0.5 0 0 0 0.5,-0.34 l 2.2,-6.47 a 0.5,0.5 0 0 0 -0.5,-0.66 l -22.27,1.2 a 0.5,0.5 0 0 0 -0.44,0.33 l -2.12,5.95 a 0.5,0.5 0 0 0 0.13,0.53 l 16.36,15.22 a 0.5,0.5 0 0 0 0.82,-0.21 l 1.99,-6.28 a 0.5,0.5 0 0 0 -0.13,-0.51 l -1.57,-1.53 a 0.5,0.5 0 0 1 -0.12,-0.52 l 2.22,-6.5"
         id="path30" />
      <path
         stroke="#10456c"
         vector-effect="non-scaling-stroke"
         d="m 84.89,257.1 c 3.17,0.41 4.46,3.01 3.12,5.9 a 1.2,1.19 -61.2 0 0 0.43,1.51 l 4.12,2.67 q 0.45,0.29 0.76,-0.16 c 3.53,-5.11 1.2,-12.21 -3.55,-15.41 -14.23,-9.59 -25.93,16.12 -7.96,20.57 q 1.27,0.31 1.36,-0.99 l 0.36,-4.93 q 0.03,-0.51 -0.46,-0.62 c -6.44,-1.43 -3.97,-9.29 1.82,-8.54"
         id="path32" />
      <path
         stroke="#10456c"
         vector-effect="non-scaling-stroke"
         d="m 331.75,265.7 a 0.35,0.35 0 0 1 -0.13,-0.47 l 2.81,-4.98 a 0.35,0.35 0 0 0 -0.14,-0.48 l -4.63,-2.56 a 0.35,0.35 0 0 0 -0.47,0.13 l -9.34,16.5 a 0.35,0.35 0 0 0 0.12,0.47 l 4.46,2.73 a 0.35,0.35 0 0 0 0.48,-0.11 l 2.96,-4.96 a 0.35,0.35 0 0 1 0.48,-0.13 l 12.62,7.29 a 0.35,0.35 0 0 0 0.48,-0.12 l 3.22,-5.59 a 0.35,0.35 0 0 0 -0.13,-0.48 l -12.79,-7.24"
         id="path34" />
      <path
         stroke="#10456c"
         vector-effect="non-scaling-stroke"
         d="m 85.66,285.8 a 0.34,0.34 0 0 0 0.47,0.07 l 7.01,-4.93 a 0.34,0.34 0 0 1 0.52,0.37 l -3.21,11.15 a 0.34,0.34 0 0 0 0.05,0.28 l 3.35,4.88 a 0.34,0.34 0 0 0 0.48,0.08 l 16.84,-11.98 a 0.34,0.34 0 0 0 0.08,-0.46 l -3.57,-5.31 a 0.34,0.34 0 0 0 -0.48,-0.08 l -6.71,4.87 a 0.34,0.34 0 0 1 -0.52,-0.36 l 2.93,-10.73 a 0.34,0.34 0 0 0 -0.05,-0.28 l -3.53,-5.03 a 0.34,0.34 0 0 0 -0.48,-0.08 l -16.91,12 a 0.34,0.34 0 0 0 -0.07,0.48 l 3.8,5.06"
         id="path36" />
      <path
         stroke="#10456c"
         vector-effect="non-scaling-stroke"
         d="m 333.9496,290.3533 a 0.63,0.63 0 0 0 -0.1225,-0.8825 l -16.0314,-12.1245 a 0.63,0.63 0 0 0 -0.8825,0.1225 l -3.5228,4.6579 a 0.63,0.63 0 0 0 0.1225,0.8825 l 16.0314,12.1245 a 0.63,0.63 0 0 0 0.8825,-0.1225 l 3.5228,-4.6579"
         id="path38" />
      <path
         stroke="#10456c"
         vector-effect="non-scaling-stroke"
         d="m 316.11,300.46 c 0.56,0.57 0.73,1.29 0.29,2.04 -4.07,6.97 -13.19,-1.05 -8.43,-5.72 1.11,-1.09 2.81,-1.66 4.35,-2.47 q 0.49,-0.25 0.42,-0.8 l -0.51,-4.08 q -0.16,-1.27 -1.4,-0.93 c -19.32,5.35 -9.38,30.54 6.09,21.44 q 5.39,-3.17 6.96,-10.13 0.13,-0.58 -0.28,-1 l -6.21,-6.32 q -0.39,-0.4 -0.79,-0.01 l -6.45,6.41 q -0.47,0.47 0,0.95 l 2.34,2.38 q 0.47,0.47 0.93,-0.01 l 1.68,-1.75 q 0.5,-0.53 1.01,0"
         id="path40" />
      <path
         stroke="#10456c"
         vector-effect="non-scaling-stroke"
         d="m 123.8312,311.3429 a 11.69,11.12 39.8 0 0 -1.8632,-16.0262 11.69,11.12 39.8 0 0 -16.0992,1.0604 11.69,11.12 39.8 0 0 1.8632,16.0262 11.69,11.12 39.8 0 0 16.0992,-1.0604"
         id="path42" />
      <path
         stroke="#10456c"
         vector-effect="non-scaling-stroke"
         d="m 292.8532,303.8551 a 0.81,0.81 0 0 0 -1.1344,-0.1595 l -4.3765,3.298 a 0.81,0.81 0 0 0 -0.1594,1.1343 l 11.9039,15.797 a 0.81,0.81 0 0 0 1.1344,0.1595 l 4.3765,-3.298 a 0.81,0.81 0 0 0 0.1594,-1.1343 l -11.9039,-15.797"
         id="path44" />
      <path
         stroke="#10456c"
         vector-effect="non-scaling-stroke"
         d="m 131.62,323.01 a 0.54,0.54 0 0 1 -0.16,-0.75 l 7.78,-12.02 a 0.54,0.54 0 0 0 -0.16,-0.75 l -5.05,-3.19 a 0.54,0.54 0 0 0 -0.74,0.17 l -11.06,16.96 a 0.54,0.54 0 0 0 0.16,0.74 l 13.52,8.82 a 0.54,0.54 0 0 0 0.75,-0.17 l 2.65,-4.28 a 0.54,0.54 0 0 0 -0.17,-0.74 l -7.52,-4.79"
         id="path46" />
      <path
         stroke="#10456c"
         vector-effect="non-scaling-stroke"
         d="m 265.65,320.57 9.99,17.8 a 0.48,0.48 0 0 0 0.66,0.19 l 7.74,-4.35 a 11.56,10.16 -29.3 0 0 5.11,-14.52 l -0.52,-0.92 a 11.56,10.16 -29.3 0 0 -15.05,-3.2 l -7.74,4.34 a 0.48,0.48 0 0 0 -0.19,0.66"
         id="path48" />
      <path
         stroke="#10456c"
         vector-effect="non-scaling-stroke"
         d="m 166.6894,334.3986 a 11.69,11.12 18.6 0 0 -7.5326,-14.2678 11.69,11.12 18.6 0 0 -14.6262,6.8106 11.69,11.12 18.6 0 0 7.5326,14.2678 11.69,11.12 18.6 0 0 14.6262,-6.8106"
         id="path50" />
      <path
         stroke="#10456c"
         vector-effect="non-scaling-stroke"
         d="m 243.12,333.34 c 0.63,-1.26 5.38,-0.79 7.7,-0.9 q 0.43,-0.02 0.6,-0.41 l 1.74,-3.93 a 0.65,0.64 20.3 0 0 -0.41,-0.88 c -4.68,-1.39 -12.73,-0.8 -15.63,3.83 -1.62,2.59 -1.27,6.2 1,8.25 2.42,2.17 8.16,1.45 11.28,1.46 q 1.85,0 0.58,1.34 c -1.67,1.77 -6.91,1.08 -9.1,0.59 q -0.54,-0.12 -0.78,0.38 l -1.95,4.12 q -0.26,0.56 0.32,0.76 c 6.31,2.24 19.92,1.16 18.13,-8.91 -0.95,-5.35 -8.55,-4.82 -12.63,-4.46 a 0.86,0.86 0 0 1 -0.85,-1.24"
         id="path52" />
      <path
         stroke="#10456c"
         vector-effect="non-scaling-stroke"
         d="m 184.97,343.49 q -0.64,1.4 -2.48,1 c -7.8,-1.7 -4.71,-12.01 2.5,-9.78 1.23,0.38 1.76,1.31 2.87,2.02 q 0.47,0.3 0.91,-0.05 l 3.71,-2.93 q 0.61,-0.48 0.09,-1.05 c -6.52,-7.13 -20.62,-6.22 -21.58,5.05 -0.92,10.68 10.44,15.05 18.95,11.36 q 0.43,-0.19 0.53,-0.64 l 1.96,-8.57 q 0.14,-0.59 -0.45,-0.71 l -8.65,-1.87 q -0.85,-0.18 -1.01,0.66 l -0.6,2.97 q -0.13,0.7 0.55,0.89 l 2.23,0.63 q 0.83,0.24 0.47,1.02"
         id="path54" />
      <path
         stroke="#10456c"
         vector-effect="non-scaling-stroke"
         d="m 225.35,349.28 a 0.34,0.34 0 0 1 0.32,0.19 l 1.24,2.44 a 0.34,0.34 0 0 0 0.32,0.18 l 6.97,-0.47 a 0.34,0.34 0 0 0 0.28,-0.49 l -10.31,-20.21 a 0.34,0.34 0 0 0 -0.32,-0.18 l -6.56,0.45 a 0.34,0.34 0 0 0 -0.3,0.23 l -7.3,21.39 a 0.34,0.34 0 0 0 0.35,0.45 l 7.04,-0.46 a 0.34,0.34 0 0 0 0.31,-0.28 l 0.48,-2.53 a 0.34,0.34 0 0 1 0.31,-0.28 l 7.17,-0.43"
         id="path56" />
      <path
         stroke="#10456c"
         vector-effect="non-scaling-stroke"
         d="m 205.2682,331.7473 a 0.36,0.36 0 0 0 -0.3334,-0.3848 l -6.2839,-0.4504 a 0.36,0.36 0 0 0 -0.3848,0.3333 l -1.4743,20.5673 a 0.36,0.36 0 0 0 0.3334,0.3848 l 6.2839,0.4504 a 0.36,0.36 0 0 0 0.3848,-0.3333 l 1.4743,-20.5673"
         id="path58" />
      <path
         stroke="#10456c"
         vector-effect="non-scaling-stroke"
         d="m 101.29,105.52 9.6,9.38 a 1.16,1.16 0 0 0 1.64,-0.02 l 1.48,-1.51 a 8.41,7.41 -45.7 0 0 0.57,-11.2 l -0.66,-0.64 a 8.41,7.41 -45.7 0 0 -11.18,0.84 l -1.47,1.51 a 1.16,1.16 0 0 0 0.02,1.64"
         id="path60" />
      <path
         stroke="#10456c"
         vector-effect="non-scaling-stroke"
         d="m 187.45,131.81 c -18.37,-8.5 -37.04,2.66 -39.86,22.45 q -0.08,0.56 -0.65,0.55 c -18.74,-0.58 -33.52,13.15 -33.91,31.75 -0.44,20.72 18.38,33.98 38.07,32.11 q 0.4,-0.04 0.4,-0.45 v -7.47 a 0.47,0.46 -3.3 0 0 -0.52,-0.46 c -6.67,0.76 -13.46,-0.42 -19.02,-4.23 -13.27,-9.08 -13.76,-28.3 -0.8,-38.08 7.26,-5.48 16.53,-5.66 24.97,-2.69 a 0.61,0.61 0 0 0 0.8,-0.68 c -0.85,-4.79 -1.3,-10.48 0.39,-14.94 3.46,-9.12 13.88,-14.11 23.14,-11.41 4.86,1.41 9.13,4.98 12.64,8.75 a 0.4,0.39 -62.6 0 0 0.68,-0.22 c 0.73,-4.95 1.36,-10.42 3.5,-14.76 12.39,-25.07 47.19,-19.21 52.68,7.81 0.54,2.64 0.15,5.89 0.46,8.85 q 0.06,0.53 0.56,0.35 20.75,-7.75 35.34,5.08 c 20.28,17.83 11.04,49.76 -14.56,55.47 q -0.76,0.17 -0.76,0.95 v 7.26 q 0,0.65 0.64,0.53 c 34.84,-6.68 46.6,-49.43 19.16,-71.87 q -13.41,-10.97 -31.88,-8.36 -0.52,0.08 -0.63,-0.43 c -7.97,-36.19 -57.03,-41.55 -70.02,-6.2 q -0.22,0.62 -0.82,0.34"
         id="path62" />
      <path
         stroke="#10456c"
         vector-effect="non-scaling-stroke"
         d="m 199.02,167.15 a 0.28,0.28 0 0 0 0.4,0.01 l 7.1,-6.95 a 0.28,0.28 0 0 1 0.48,0.2 v 59.27 a 0.28,0.28 0 0 1 -0.48,0.2 l -7.04,-7.33 a 0.28,0.28 0 0 0 -0.4,-0.01 l -5.76,5.77 a 0.28,0.28 0 0 0 0,0.4 l 17.87,17.84 a 0.28,0.28 0 0 0 0.4,0 l 17.71,-17.76 a 0.28,0.28 0 0 0 0,-0.39 l -5.64,-5.88 a 0.28,0.28 0 0 0 -0.4,0 l -6.81,7.1 a 0.28,0.28 0 0 1 -0.2,0.09 h -0.47 a 0.28,0.28 0 0 1 -0.28,-0.28 v -59.37 a 0.28,0.28 0 0 1 0.48,-0.2 l 7.32,7.32 a 0.28,0.28 0 0 0 0.4,0 l 5.61,-5.61 a 0.28,0.28 0 0 0 0,-0.4 l -17.84,-17.86 a 0.28,0.28 0 0 0 -0.4,0 l -17.69,17.79 a 0.28,0.28 0 0 0 0,0.4 l 5.64,5.65"
         id="path64" />
      <path
         stroke="#10456c"
         vector-effect="non-scaling-stroke"
         d="m 169.19,191.87 32.96,0.06 q 0.57,0 0.58,-0.58 L 202.8,184 q 0,-0.5 -0.49,-0.5 h -41.89 q -0.52,0 -0.52,0.52 l -0.04,66.94 q -0.01,1.31 -1.32,1.3 l -21.92,-0.22 q -0.82,-0.01 -0.4,0.69 l 12.29,20.32 q 0.28,0.45 0.8,0.45 h 124.16 q 0.51,0 0.78,-0.44 l 12.34,-20.5 a 0.41,0.41 0 0 0 -0.36,-0.62 l -22.99,0.21 a 0.41,0.41 0 0 1 -0.42,-0.41 l -0.24,-67.83 q 0,-0.41 -0.42,-0.41 h -41.5 q -0.65,0 -0.65,0.65 l -0.01,7.1 q 0,0.75 0.75,0.75 h 33 a 0.5,0.5 0 0 1 0.5,0.5 v 58.75 q 0,0.49 -0.48,0.6 -2.01,0.49 -3.27,0.37 c -5.14,-0.48 -11.81,0.01 -15.32,0.02 q -33.01,0.06 -66.19,-0.05 -0.49,0 -0.49,-0.49 v -59.14 q 0,-0.69 0.69,-0.69"
         id="path66" />
      <path
         stroke="#10456c"
         vector-effect="non-scaling-stroke"
         d="m 182.01,239.08 a 0.51,0.51 0 0 1 -0.51,-0.51 v -33.08 a 0.51,0.51 0 0 1 0.51,-0.51 l 20.23,0.05 a 0.51,0.51 0 0 0 0.51,-0.51 v -7.51 a 0.51,0.51 0 0 0 -0.51,-0.51 h -28.98 a 0.51,0.51 0 0 0 -0.51,0.51 v 50.23 a 0.51,0.51 0 0 0 0.51,0.51 h 76.23 a 0.51,0.51 0 0 0 0.51,-0.51 v -50.23 a 0.51,0.51 0 0 0 -0.51,-0.51 h -28.98 a 0.51,0.51 0 0 0 -0.51,0.51 l 0.01,7.48 a 0.51,0.51 0 0 0 0.51,0.51 h 20.47 a 0.51,0.51 0 0 1 0.51,0.51 v 33.07 a 0.51,0.51 0 0 1 -0.51,0.51 l -58.98,-0.01"
         id="path68" />
      <path
         stroke="#10456c"
         vector-effect="non-scaling-stroke"
         d="m 271.13,260.69 -119.52,-0.07 q -0.44,0 -0.38,0.44 0.51,3.94 3.77,3.94 57,0 114.01,0 0.55,0 0.82,-0.48 l 1.72,-3.13 q 0.38,-0.7 -0.42,-0.7"
         id="path70" />
      <path
         stroke="#10456c"
         vector-effect="non-scaling-stroke"
         d="m 344.92,252.57 a 0.38,0.38 0 0 0 0.61,-0.16 l 0.98,-2.73 a 0.38,0.38 0 0 0 -0.38,-0.51 l -3.92,0.14 a 0.38,0.38 0 0 0 -0.24,0.67 l 2.95,2.59"
         id="path72" />
      <path
         stroke="#10456c"
         vector-effect="non-scaling-stroke"
         d="m 111.7554,307.5595 a 4.78,4.42 129.1 0 0 6.4447,-0.9219 4.78,4.42 129.1 0 0 -0.4155,-6.4971 4.78,4.42 129.1 0 0 -6.4447,0.9219 4.78,4.42 129.1 0 0 0.4155,6.4971"
         id="path74" />
      <path
         stroke="#10456c"
         vector-effect="non-scaling-stroke"
         d="m 275.03,322.88 3.64,6.28 a 0.97,0.97 0 0 0 1.33,0.35 l 0.21,-0.12 a 5.44,4.36 -30.1 0 0 2.52,-6.5 l -0.24,-0.42 a 5.44,4.36 -30.1 0 0 -6.89,-1.04 l -0.22,0.12 a 0.97,0.97 0 0 0 -0.35,1.33"
         id="path76" />
      <path
         stroke="#10456c"
         vector-effect="non-scaling-stroke"
         d="m 153.7284,335.1092 a 4.79,4.41 113 0 0 5.931,-2.6861 4.79,4.41 113 0 0 -2.1878,-6.1323 4.79,4.41 113 0 0 -5.931,2.6861 4.79,4.41 113 0 0 2.1878,6.1323"
         id="path78" />
      <path
         stroke="#10456c"
         vector-effect="non-scaling-stroke"
         d="m 219.58,344.29 a 0.34,0.34 0 0 0 0.36,0.44 l 3.13,-0.31 a 0.34,0.34 0 0 0 0.27,-0.5 l -1.95,-3.66 a 0.34,0.34 0 0 0 -0.62,0.06 l -1.19,3.97"
         id="path80" />
    </g>
    <path
       fill="#0e70b6"
       d="M 384.74,201.36 A 173.39,173.39 0 0 1 211.35,374.75 173.39,173.39 0 0 1 37.96,201.36 173.39,173.39 0 0 1 211.35,27.97 173.39,173.39 0 0 1 384.74,201.36 Z M 233.78,59.2 a 0.52,0.52 0 0 1 -0.41,-0.65 l 0.82,-2.77 a 0.52,0.52 0 0 1 0.59,-0.36 l 18.2,3.37 a 0.52,0.52 0 0 0 0.6,-0.41 l 1.7,-9.27 a 0.52,0.52 0 0 0 -0.43,-0.61 l -30.62,-5.36 a 0.52,0.52 0 0 0 -0.6,0.42 l -6.51,36.15 a 0.52,0.52 0 0 0 0.42,0.6 l 30.93,5.56 a 0.52,0.52 0 0 0 0.61,-0.42 l 1.74,-9.12 a 0.52,0.52 0 0 0 -0.42,-0.61 l -18.86,-3.38 a 0.52,0.52 0 0 1 -0.42,-0.6 l 0.56,-3.08 a 0.52,0.52 0 0 1 0.6,-0.42 l 17.3,2.97 a 0.52,0.52 0 0 0 0.6,-0.43 l 1.18,-7.86 a 0.52,0.52 0 0 0 -0.42,-0.59 z m -42.69,9.42 c 4.18,6.22 -13.55,8.8 -14.03,-3.65 -0.31,-7.87 8.14,-11.59 14.44,-7.91 a 1.15,1.15 0 0 0 1.6,-0.46 l 4.36,-8.36 q 0.23,-0.44 -0.22,-0.66 c -9.94,-5.07 -23.41,-2.95 -29.79,6.71 -5.83,8.83 -3.16,21.72 5.93,27.04 10.31,6.05 22.78,2.59 30.9,-5.74 q 0.37,-0.39 0.26,-0.92 l -3.47,-16.38 a 0.49,0.49 0 0 0 -0.58,-0.38 l -16.61,3.6 q -0.65,0.14 -0.52,0.79 l 1.4,6.69 q 0.12,0.6 0.72,0.46 l 4.82,-1.14 q 0.5,-0.12 0.79,0.31 z m -51.2285,-7.6797 a 0.59,0.59 0 0 0 -0.8037,-0.2244 l -9.9318,5.5963 a 0.59,0.59 0 0 0 -0.2244,0.8037 l 17.9769,31.9038 a 0.59,0.59 0 0 0 0.8037,0.2244 l 9.9318,-5.5963 a 0.59,0.59 0 0 0 0.2244,-0.8037 z M 283.34,74.05 q 0.04,-1.77 1.7,-1.62 c 3.41,0.3 7.76,6.16 9.14,9.05 q 0.27,0.57 0.84,0.32 l 8.76,-3.73 a 0.55,0.55 0 0 0 0.27,-0.77 c -4.19,-7.9 -13.59,-16.35 -23.03,-15.63 -10.38,0.8 -13.76,12.28 -6.54,19.61 1.25,1.27 8.08,7.67 8.18,8.85 q 0.05,0.73 -0.67,1.23 a 1.88,1.86 41.3 0 1 -1.94,0.12 q -6.93,-3.67 -10.2,-10.81 -0.24,-0.51 -0.77,-0.33 l -8.92,3.09 q -0.6,0.21 -0.34,0.79 c 3.71,8.15 11.15,15.13 19.74,17.72 6.36,1.91 13.65,-1.33 15.45,-7.86 2.2,-8 -6.31,-14.13 -11.19,-18.87 a 1.56,1.59 21.9 0 1 -0.48,-1.16 z m -199.46,32.6 27.29,25.36 a 0.22,0.22 0 0 0 0.31,-0.01 l 11.19,-12.04 a 17.61,20.26 42.9 0 0 0.89,-26.83 l -1.81,-1.69 A 17.61,20.26 42.9 0 0 95.06,94.3 l -11.19,12.04 a 0.22,0.22 0 0 0 0.01,0.31 z m 224.69,23.71 a 0.43,0.43 0 0 0 0.6,0.06 l 20.41,-16.52 a 0.43,0.43 0 0 1 0.6,0.06 l 6.49,7.92 a 0.43,0.43 0 0 0 0.6,0.07 l 7.66,-6.04 A 0.43,0.43 0 0 0 345,115.3 L 323.54,88.79 a 0.43,0.43 0 0 0 -0.6,-0.06 l -7.57,6.22 a 0.43,0.43 0 0 0 -0.06,0.6 l 6.49,7.94 a 0.43,0.43 0 0 1 -0.07,0.6 l -20.52,16.59 a 0.43,0.43 0 0 0 -0.07,0.6 z m 11.64,71 A 108.86,108.86 0 0 0 211.35,92.5 108.86,108.86 0 0 0 102.49,201.36 108.86,108.86 0 0 0 211.35,310.22 108.86,108.86 0 0 0 320.21,201.36 Z M 84.68,165.03 a 9.05,9.05 0 0 0 -9.05,-9.05 9.05,9.05 0 0 0 -9.05,9.05 9.05,9.05 0 0 0 9.05,9.05 9.05,9.05 0 0 0 9.05,-9.05 z m 272.11,0 a 9.04,9.04 0 0 0 -9.04,-9.04 9.04,9.04 0 0 0 -9.04,9.04 9.04,9.04 0 0 0 9.04,9.04 9.04,9.04 0 0 0 9.04,-9.04 z m -0.96,45.74 a 0.58,0.58 0 0 1 1.1,0.24 q 0.15,4.49 -2.41,8.12 -0.32,0.46 0.07,0.85 l 3.36,3.32 q 0.46,0.46 0.86,-0.05 4.62,-5.9 3.85,-13.53 c -0.45,-4.42 -5.37,-8.57 -9.46,-6.08 -3.08,1.86 -4.23,6.52 -5.35,10.15 q -0.24,0.76 -1.22,0.37 -0.52,-0.21 -0.46,-0.77 0.34,-3.52 2.15,-6.62 0.3,-0.5 -0.16,-0.85 l -3.63,-2.87 a 0.67,0.67 0 0 0 -0.98,0.17 c -3.56,5.57 -5.62,19.07 5.01,18.31 4.37,-0.31 5.71,-7.69 7.27,-10.76 z m -280.22,6.32 a 0.64,0.64 0 0 1 0.7,0.6 l 0.27,5.01 a 0.64,0.64 0 0 0 0.69,0.61 l 4.82,-0.41 a 0.64,0.64 0 0 0 0.58,-0.69 l -1.72,-18.46 a 0.64,0.64 0 0 0 -0.7,-0.58 l -4.74,0.46 a 0.64,0.64 0 0 0 -0.58,0.67 l 0.27,5.27 a 0.64,0.64 0 0 1 -0.59,0.67 l -13.8,1.02 a 0.64,0.64 0 0 0 -0.59,0.69 l 0.43,5.94 a 0.64,0.64 0 0 0 0.7,0.59 z m 284.5486,12.6652 a 0.59,0.59 0 0 0 -0.4581,-0.6973 l -19.7412,-4.0882 a 0.59,0.59 0 0 0 -0.6974,0.4581 l -1.2005,5.797 a 0.59,0.59 0 0 0 0.4581,0.6973 l 19.7412,4.0882 a 0.59,0.59 0 0 0 0.6974,-0.4581 z M 71.39,236.18 a 0.84,0.84 0 0 1 1.05,0.58 l 2.44,8.99 a 0.75,0.74 72.8 0 0 0.96,0.51 l 3.62,-1.21 q 0.57,-0.19 0.41,-0.78 l -2.42,-8.52 a 1.04,1.03 77.6 0 1 0.83,-1.31 l 0.4,-0.06 q 0.66,-0.11 0.84,0.54 l 2.59,9.49 q 0.16,0.58 0.74,0.44 l 4.5,-1.09 q 0.58,-0.14 0.42,-0.71 l -4.31,-16.27 a 0.77,0.77 0 0 0 -0.94,-0.54 l -19.43,5.09 a 0.54,0.54 0 0 0 -0.38,0.65 l 4.45,16.89 q 0.13,0.52 0.64,0.37 l 4.48,-1.28 q 0.61,-0.18 0.45,-0.79 c -0.47,-1.81 -3.34,-10.37 -1.34,-10.99 z m 280.55,13.36 a 0.5,0.5 0 0 1 0.5,-0.34 l 2.43,0.13 a 0.5,0.5 0 0 0 0.5,-0.34 l 2.2,-6.47 a 0.5,0.5 0 0 0 -0.5,-0.66 l -22.27,1.2 a 0.5,0.5 0 0 0 -0.44,0.33 l -2.12,5.95 a 0.5,0.5 0 0 0 0.13,0.53 l 16.36,15.22 a 0.5,0.5 0 0 0 0.82,-0.21 l 1.99,-6.28 a 0.5,0.5 0 0 0 -0.13,-0.51 l -1.57,-1.53 a 0.5,0.5 0 0 1 -0.12,-0.52 z M 84.89,257.1 c 3.17,0.41 4.46,3.01 3.12,5.9 a 1.19,1.2 28.8 0 0 0.43,1.51 l 4.12,2.67 q 0.45,0.29 0.76,-0.16 c 3.53,-5.11 1.2,-12.21 -3.55,-15.41 -14.23,-9.59 -25.93,16.12 -7.96,20.57 q 1.27,0.31 1.36,-0.99 l 0.36,-4.93 q 0.03,-0.51 -0.46,-0.62 c -6.44,-1.43 -3.97,-9.29 1.82,-8.54 z m 246.86,8.6 a 0.35,0.35 0 0 1 -0.13,-0.47 l 2.81,-4.98 a 0.35,0.35 0 0 0 -0.14,-0.48 l -4.63,-2.56 a 0.35,0.35 0 0 0 -0.47,0.13 l -9.34,16.5 a 0.35,0.35 0 0 0 0.12,0.47 l 4.46,2.73 a 0.35,0.35 0 0 0 0.48,-0.11 l 2.96,-4.96 a 0.35,0.35 0 0 1 0.48,-0.13 l 12.62,7.29 a 0.35,0.35 0 0 0 0.48,-0.12 l 3.22,-5.59 a 0.35,0.35 0 0 0 -0.13,-0.48 z M 85.66,285.8 a 0.34,0.34 0 0 0 0.47,0.07 l 7.01,-4.93 a 0.34,0.34 0 0 1 0.52,0.37 l -3.21,11.15 a 0.34,0.34 0 0 0 0.05,0.28 l 3.35,4.88 a 0.34,0.34 0 0 0 0.48,0.08 l 16.84,-11.98 a 0.34,0.34 0 0 0 0.08,-0.46 l -3.57,-5.31 a 0.34,0.34 0 0 0 -0.48,-0.08 l -6.71,4.87 a 0.34,0.34 0 0 1 -0.52,-0.36 l 2.93,-10.73 a 0.34,0.34 0 0 0 -0.05,-0.28 l -3.53,-5.03 a 0.34,0.34 0 0 0 -0.48,-0.08 l -16.91,12 a 0.34,0.34 0 0 0 -0.07,0.48 z m 248.2896,4.5533 a 0.63,0.63 0 0 0 -0.1225,-0.8825 l -16.0314,-12.1245 a 0.63,0.63 0 0 0 -0.8825,0.1225 l -3.5228,4.6579 a 0.63,0.63 0 0 0 0.1225,0.8825 l 16.0314,12.1245 a 0.63,0.63 0 0 0 0.8825,-0.1225 z M 316.11,300.46 c 0.56,0.57 0.73,1.29 0.29,2.04 -4.07,6.97 -13.19,-1.05 -8.43,-5.72 1.11,-1.09 2.81,-1.66 4.35,-2.47 q 0.49,-0.25 0.42,-0.8 l -0.51,-4.08 q -0.16,-1.27 -1.4,-0.93 c -19.32,5.35 -9.38,30.54 6.09,21.44 q 5.39,-3.17 6.96,-10.13 0.13,-0.58 -0.28,-1 l -6.21,-6.32 q -0.39,-0.4 -0.79,-0.01 l -6.45,6.41 q -0.47,0.47 0,0.95 l 2.34,2.38 q 0.47,0.47 0.93,-0.01 l 1.68,-1.75 q 0.5,-0.53 1.01,0 z m -192.2788,10.8829 a 11.69,11.12 39.8 0 0 -1.8632,-16.0262 11.69,11.12 39.8 0 0 -16.0992,1.0604 11.69,11.12 39.8 0 0 1.8632,16.0262 11.69,11.12 39.8 0 0 16.0992,-1.0604 z m 169.022,-7.4878 a 0.81,0.81 0 0 0 -1.1344,-0.1595 l -4.3765,3.298 a 0.81,0.81 0 0 0 -0.1594,1.1343 l 11.9039,15.797 a 0.81,0.81 0 0 0 1.1344,0.1595 l 4.3765,-3.298 a 0.81,0.81 0 0 0 0.1594,-1.1343 z M 131.62,323.01 a 0.54,0.54 0 0 1 -0.16,-0.75 l 7.78,-12.02 a 0.54,0.54 0 0 0 -0.16,-0.75 l -5.05,-3.19 a 0.54,0.54 0 0 0 -0.74,0.17 l -11.06,16.96 a 0.54,0.54 0 0 0 0.16,0.74 l 13.52,8.82 a 0.54,0.54 0 0 0 0.75,-0.17 l 2.65,-4.28 a 0.54,0.54 0 0 0 -0.17,-0.74 z m 134.03,-2.44 9.99,17.8 a 0.48,0.48 0 0 0 0.66,0.19 l 7.74,-4.35 a 10.16,11.56 60.7 0 0 5.11,-14.52 l -0.52,-0.92 a 10.16,11.56 60.7 0 0 -15.05,-3.2 l -7.74,4.34 a 0.48,0.48 0 0 0 -0.19,0.66 z m -98.9606,13.8286 a 11.69,11.12 18.6 0 0 -7.5326,-14.2678 11.69,11.12 18.6 0 0 -14.6262,6.8106 11.69,11.12 18.6 0 0 7.5326,14.2678 11.69,11.12 18.6 0 0 14.6262,-6.8106 z M 243.12,333.34 c 0.63,-1.26 5.38,-0.79 7.7,-0.9 q 0.43,-0.02 0.6,-0.41 l 1.74,-3.93 a 0.65,0.64 20.3 0 0 -0.41,-0.88 c -4.68,-1.39 -12.73,-0.8 -15.63,3.83 -1.62,2.59 -1.27,6.2 1,8.25 2.42,2.17 8.16,1.45 11.28,1.46 q 1.85,0 0.58,1.34 c -1.67,1.77 -6.91,1.08 -9.1,0.59 q -0.54,-0.12 -0.78,0.38 l -1.95,4.12 q -0.26,0.56 0.32,0.76 c 6.31,2.24 19.92,1.16 18.13,-8.91 -0.95,-5.35 -8.55,-4.82 -12.63,-4.46 a 0.86,0.86 0 0 1 -0.85,-1.24 z m -58.15,10.15 q -0.64,1.4 -2.48,1 c -7.8,-1.7 -4.71,-12.01 2.5,-9.78 1.23,0.38 1.76,1.31 2.87,2.02 q 0.47,0.3 0.91,-0.05 l 3.71,-2.93 q 0.61,-0.48 0.09,-1.05 c -6.52,-7.13 -20.62,-6.22 -21.58,5.05 -0.92,10.68 10.44,15.05 18.95,11.36 q 0.43,-0.19 0.53,-0.64 l 1.96,-8.57 q 0.14,-0.59 -0.45,-0.71 l -8.65,-1.87 q -0.85,-0.18 -1.01,0.66 l -0.6,2.97 q -0.13,0.7 0.55,0.89 l 2.23,0.63 q 0.83,0.24 0.47,1.02 z m 40.38,5.79 a 0.34,0.34 0 0 1 0.32,0.19 l 1.24,2.44 a 0.34,0.34 0 0 0 0.32,0.18 l 6.97,-0.47 a 0.34,0.34 0 0 0 0.28,-0.49 l -10.31,-20.21 a 0.34,0.34 0 0 0 -0.32,-0.18 l -6.56,0.45 a 0.34,0.34 0 0 0 -0.3,0.23 l -7.3,21.39 a 0.34,0.34 0 0 0 0.35,0.45 l 7.04,-0.46 a 0.34,0.34 0 0 0 0.31,-0.28 l 0.48,-2.53 a 0.34,0.34 0 0 1 0.31,-0.28 z m -20.0818,-17.5327 a 0.36,0.36 0 0 0 -0.3334,-0.3848 l -6.2839,-0.4504 a 0.36,0.36 0 0 0 -0.3848,0.3333 l -1.4743,20.5673 a 0.36,0.36 0 0 0 0.3334,0.3848 l 6.2839,0.4504 a 0.36,0.36 0 0 0 0.3848,-0.3333 z"
       id="path86"
       style="stroke:none;stroke-width:0;stroke-dasharray:none" />
    <path
       fill="#0e70b6"
       d="m 101.29,105.52 a 1.16,1.16 0 0 1 -0.02,-1.64 l 1.47,-1.51 a 7.41,8.41 44.3 0 1 11.18,-0.84 l 0.66,0.64 a 7.41,8.41 44.3 0 1 -0.57,11.2 l -1.48,1.51 a 1.16,1.16 0 0 1 -1.64,0.02 z"
       id="path102" />
    <path
       fill="#0e70b6"
       d="m 188.27,131.47 c 12.99,-35.35 62.05,-29.99 70.02,6.2 q 0.11,0.51 0.63,0.43 18.47,-2.61 31.88,8.36 c 27.44,22.44 15.68,65.19 -19.16,71.87 Q 271,218.45 271,217.8 v -7.26 q 0,-0.78 0.76,-0.95 c 25.6,-5.71 34.84,-37.64 14.56,-55.47 q -14.59,-12.83 -35.34,-5.08 -0.5,0.18 -0.56,-0.35 c -0.31,-2.96 0.08,-6.21 -0.46,-8.85 -5.49,-27.02 -40.29,-32.88 -52.68,-7.81 -2.14,4.34 -2.77,9.81 -3.5,14.76 a 0.39,0.4 27.4 0 1 -0.68,0.22 c -3.51,-3.77 -7.78,-7.34 -12.64,-8.75 -9.26,-2.7 -19.68,2.29 -23.14,11.41 -1.69,4.46 -1.24,10.15 -0.39,14.94 a 0.61,0.61 0 0 1 -0.8,0.68 c -8.44,-2.97 -17.71,-2.79 -24.97,2.69 -12.96,9.78 -12.47,29 0.8,38.08 5.56,3.81 12.35,4.99 19.02,4.23 a 0.46,0.47 86.7 0 1 0.52,0.46 v 7.47 q 0,0.41 -0.4,0.45 c -19.69,1.87 -38.51,-11.39 -38.07,-32.11 0.39,-18.6 15.17,-32.33 33.91,-31.75 q 0.57,0.01 0.65,-0.55 c 2.82,-19.79 21.49,-30.95 39.86,-22.45 q 0.6,0.28 0.82,-0.34 z"
       id="path104" />
    <path
       fill="#0e70b6"
       d="m 199.02,167.15 -5.64,-5.65 a 0.28,0.28 0 0 1 0,-0.4 l 17.69,-17.79 a 0.28,0.28 0 0 1 0.4,0 l 17.84,17.86 a 0.28,0.28 0 0 1 0,0.4 l -5.61,5.61 a 0.28,0.28 0 0 1 -0.4,0 l -7.32,-7.32 a 0.28,0.28 0 0 0 -0.48,0.2 v 59.37 a 0.28,0.28 0 0 0 0.28,0.28 h 0.47 a 0.28,0.28 0 0 0 0.2,-0.09 l 6.81,-7.1 a 0.28,0.28 0 0 1 0.4,0 l 5.64,5.88 a 0.28,0.28 0 0 1 0,0.39 l -17.71,17.76 a 0.28,0.28 0 0 1 -0.4,0 l -17.87,-17.84 a 0.28,0.28 0 0 1 0,-0.4 l 5.76,-5.77 a 0.28,0.28 0 0 1 0.4,0.01 l 7.04,7.33 a 0.28,0.28 0 0 0 0.48,-0.2 v -59.27 a 0.28,0.28 0 0 0 -0.48,-0.2 l -7.1,6.95 a 0.28,0.28 0 0 1 -0.4,-0.01 z"
       id="path106" />
    <path
       fill="#0e70b6"
       d="m 168.5,192.56 v 59.14 q 0,0.49 0.49,0.49 33.18,0.11 66.19,0.05 c 3.51,-0.01 10.18,-0.5 15.32,-0.02 q 1.26,0.12 3.27,-0.37 0.48,-0.11 0.48,-0.6 V 192.5 a 0.5,0.5 0 0 0 -0.5,-0.5 h -33 Q 220,192 220,191.25 l 0.01,-7.1 q 0,-0.65 0.65,-0.65 h 41.5 q 0.42,0 0.42,0.41 l 0.24,67.83 a 0.41,0.41 0 0 0 0.42,0.41 l 22.99,-0.21 a 0.41,0.41 0 0 1 0.36,0.62 l -12.34,20.5 q -0.27,0.44 -0.78,0.44 H 149.31 q -0.52,0 -0.8,-0.45 l -12.29,-20.32 q -0.42,-0.7 0.4,-0.69 l 21.92,0.22 q 1.31,0.01 1.32,-1.3 l 0.04,-66.94 q 0,-0.52 0.52,-0.52 h 41.89 q 0.49,0 0.49,0.5 l -0.07,7.35 q -0.01,0.58 -0.58,0.58 l -32.96,-0.06 q -0.69,0 -0.69,0.69 z m 102.63,68.13 -119.52,-0.07 q -0.44,0 -0.38,0.44 0.51,3.94 3.77,3.94 57,0 114.01,0 0.55,0 0.82,-0.48 l 1.72,-3.13 q 0.38,-0.7 -0.42,-0.7 z"
       id="path112" />
    <path
       fill="#0e70b6"
       d="m 182.01,239.08 58.98,0.01 a 0.51,0.51 0 0 0 0.51,-0.51 V 205.51 A 0.51,0.51 0 0 0 240.99,205 h -20.47 a 0.51,0.51 0 0 1 -0.51,-0.51 L 220,197.01 a 0.51,0.51 0 0 1 0.51,-0.51 h 28.98 a 0.51,0.51 0 0 1 0.51,0.51 v 50.23 a 0.51,0.51 0 0 1 -0.51,0.51 h -76.23 a 0.51,0.51 0 0 1 -0.51,-0.51 v -50.23 a 0.51,0.51 0 0 1 0.51,-0.51 h 28.98 a 0.51,0.51 0 0 1 0.51,0.51 v 7.51 a 0.51,0.51 0 0 1 -0.51,0.51 l -20.23,-0.05 a 0.51,0.51 0 0 0 -0.51,0.51 v 33.08 a 0.51,0.51 0 0 0 0.51,0.51 z"
       id="path114" />
    <path
       fill="#0e70b6"
       d="m 344.92,252.57 -2.95,-2.59 a 0.38,0.38 0 0 1 0.24,-0.67 l 3.92,-0.14 a 0.38,0.38 0 0 1 0.38,0.51 l -0.98,2.73 a 0.38,0.38 0 0 1 -0.61,0.16 z"
       id="path126" />
    <ellipse
       fill="#0e70b6"
       cx="163.41904"
       cy="-280.69769"
       transform="rotate(129.1)"
       rx="4.7800002"
       ry="4.4200001"
       id="ellipse142" />
    <path
       fill="#0e70b6"
       d="m 275.03,322.88 a 0.97,0.97 0 0 1 0.35,-1.33 l 0.22,-0.12 a 4.36,5.44 59.9 0 1 6.89,1.04 l 0.24,0.42 a 4.36,5.44 59.9 0 1 -2.52,6.5 l -0.21,0.12 a 0.97,0.97 0 0 1 -1.33,-0.35 z"
       id="path152" />
    <ellipse
       fill="#0e70b6"
       cx="243.61319"
       cy="-272.44534"
       transform="rotate(113)"
       rx="4.79"
       ry="4.4099998"
       id="ellipse154" />
    <path
       fill="#0e70b6"
       d="m 219.58,344.29 1.19,-3.97 a 0.34,0.34 0 0 1 0.62,-0.06 l 1.95,3.66 a 0.34,0.34 0 0 1 -0.27,0.5 l -3.13,0.31 a 0.34,0.34 0 0 1 -0.36,-0.44 z"
       id="path164" />
  </g>
</svg>
